<svg width="187" height="65" viewBox="0 0 187 65" fill="none" xmlns="http://www.w3.org/2000/svg">
<path d="M31.46 22.372H19.656V53H12.532V22.372H0.728V16.08H31.46V22.372ZM67.0873 16.08V53H59.9633V37.244H43.2193V53H36.0433V16.08H43.2193V31.004H59.9633V16.08H67.0873ZM74.7894 53V16.08H81.9654V53H74.7894ZM99.7043 16.08H106.984L120.556 53H113.172L109.74 43.796H96.8443L93.4643 53H86.0803L99.7043 16.08ZM108.44 38.752L103.344 23.516L98.0403 38.752H108.44ZM124.606 53V16.08H140.934C142.632 16.08 144.192 16.4267 145.614 17.12C147.07 17.8133 148.318 18.7493 149.358 19.928C150.432 21.1067 151.247 22.424 151.802 23.88C152.391 25.336 152.686 26.8267 152.686 28.352C152.686 29.912 152.408 31.42 151.854 32.876C151.334 34.2973 150.571 35.5453 149.566 36.62C148.56 37.6947 147.382 38.5267 146.03 39.116L154.454 53H146.55L138.958 40.624H131.782V53H124.606ZM131.782 34.332H140.778C141.679 34.332 142.476 34.072 143.17 33.552C143.863 32.9973 144.418 32.2693 144.834 31.368C145.25 30.4667 145.458 29.4613 145.458 28.352C145.458 27.1733 145.215 26.1507 144.73 25.284C144.244 24.3827 143.62 23.672 142.858 23.152C142.13 22.632 141.332 22.372 140.466 22.372H131.782V34.332ZM184.824 46.708V53H159.188V16.08H184.356V22.372H166.364V31.264H181.912V37.088H166.364V46.708H184.824Z" fill="white"/>
<path d="M172.814 7.66561L174.335 8.78554L177.131 2.66586C177.623 1.58775 178.895 1.11392 179.973 1.60687C181.05 2.09991 181.525 3.37373 181.032 4.45184L177.141 12.972C176.872 13.5597 176.354 13.9949 175.729 14.1569C175.104 14.3191 174.439 14.1909 173.919 13.8078L170.273 11.1231C169.86 10.8189 169.587 10.3949 169.468 9.93433C169.311 9.33025 169.418 8.6633 169.816 8.1219C170.517 7.16733 171.86 6.96312 172.814 7.66561V7.66561Z" fill="#C83267"/>
</svg>
